<svg viewBox="0 0 148 36" width="100" xmlns="http://www.w3.org/2000/svg"><g fill="none" fill-rule="evenodd"><path d="M20.193 30.151h-9.89v-9.89h9.89v9.89z" fill="#A26BF9"/><path d="M15.248.48v9.89L.413 20.261V10.37L15.248.48z" fill="#FFF"/><path d="M15.248.48v9.89l14.835 9.891V10.37L15.248.48z" fill="#A26BF9"/><path d="M15.248 25.206l-4.945-4.945v9.89l4.945 4.946v-9.891zM56.57 12.107l-8.81 11.608h8.992v2.295H44.434v-2.043l8.924-11.769h-8.282V9.95h11.492v2.157h.002zm3.895 6.63h5.942c-.138-1.997-1.194-3.006-2.89-3.006-1.768 0-2.869 1.08-3.052 3.005zm8.558 1.308v.526h-8.58c.069 2.408 1.285 3.626 3.349 3.626 1.514 0 2.524-.758 3.05-1.767l2.09 1.08c-1.08 1.766-2.824 2.772-5.232 2.772-3.74 0-5.85-2.728-5.85-6.283 0-3.649 1.973-6.286 5.69-6.286 3.533 0 5.483 2.73 5.483 6.332zm8.785-6.287v2.592c-.416-.023-.553-.023-.713-.023-1.926 0-3.396.897-3.396 4.221v5.46h-2.522V13.987h2.499v1.973c.804-1.511 2.042-2.247 3.258-2.247.252 0 .643.022.872.045h.002zm3.369 6.194c0 2.684 1.216 4.221 3.303 4.221 2.064 0 3.281-1.537 3.281-4.221 0-2.637-1.308-4.13-3.281-4.13-1.994 0-3.303 1.495-3.303 4.13zm9.2.045c0 3.693-2.18 6.287-5.919 6.287-3.718 0-5.92-2.685-5.92-6.287 0-3.647 2.249-6.284 5.92-6.284 3.624 0 5.919 2.752 5.919 6.284zm4.929-7.752v11.47h2.959c2.225 0 4.75-1.08 4.75-5.942 0-3.122-1.47-5.53-5.3-5.53h-2.41v.002zm2.291-2.295c4.43 0 8.078 2.386 8.078 7.8 0 6.355-3.97 8.26-7.41 8.26h-5.553V9.95h4.885zm11.907 10.002c0 2.684 1.214 4.221 3.302 4.221 2.064 0 3.28-1.537 3.28-4.221 0-2.637-1.308-4.13-3.28-4.13-1.997 0-3.303 1.495-3.303 4.13h.001zm9.2.045c0 3.693-2.182 6.287-5.922 6.287-3.716 0-5.918-2.685-5.918-6.287 0-3.647 2.248-6.284 5.918-6.284 3.625 0 5.92 2.752 5.92 6.284h.002zm14.195 6.011h-2.959l-2.157-8.924-2.293 8.924h-2.936l-3.352-12.021h2.73l2.18 9.316 2.248-9.316h2.776l2.342 9.316 2.247-9.316h2.569l-3.395 12.023v-.002zm15.09-7.685v7.685h-2.524v-6.836c0-2.02-.411-3.303-2.225-3.303-1.65 0-2.89 1.4-2.89 3.372v6.767h-2.524V13.987h2.501v1.538c.917-1.262 2.18-1.81 3.534-1.81 2.66 0 4.129 1.74 4.129 4.608z" fill="#FFF"/></g></svg>